<svg xmlns="http://www.w3.org/2000/svg" xmlns:xlink="http://www.w3.org/1999/xlink" viewBox="0 0 348.32 296.85"><defs><style>.cls-1,.cls-14{fill:none;}.cls-2{clip-path:url(#clip-path);}.cls-3{fill:#cf2727;}.cls-4{fill:#f99f1e;}.cls-5{fill:#f1e911;}.cls-6{fill:#6dbe45;}.cls-7{fill:#3f58a7;}.cls-8{fill:#894c9e;}.cls-9{fill:#fff;}.cls-10{fill:#e591bd;}.cls-11{fill:#9adaef;}.cls-12{fill:#8b5021;}.cls-13{fill:#231f20;}.cls-14{stroke:#231f20;stroke-miterlimit:10;stroke-width:0.5px;}</style><clipPath id="clip-path"><path class="cls-1" d="M100.38,50.14v176c-10.63-4.83-25.55-4.38-39.68,2.28-21.55,10.16-33.12,30.87-25.86,46.29a24.43,24.43,0,0,0,11.82,11.5,37.42,37.42,0,0,0,15.11,3.5c19-.71,46-13.75,52.23-34.51h0a30.84,30.84,0,0,0,1.29-8.24c.74-37.86,0-104.19,0-105.55l146.12-37.58v80.33c-10.62-4.7-25.4-4.21-39.42,2.39a61.81,61.81,0,0,0-8.3,4.75,48.76,48.76,0,0,0-16.38,18.24c-3.86,7.85-4.55,16.16-1.18,23.31a23.34,23.34,0,0,0,8,9.29c9.33,6.45,23.78,7.65,38.15,2.68l.64-.23c17-6.43,32.79-20.45,33.36-39.79,0-.35,0-.71,0-1.08V9.14ZM262.74,70.28,116.28,106V84.29l146.46-34.8Z"/></clipPath></defs><title>GMCLogo1</title><g id="Layer_2" data-name="Layer 2"><g id="Layer_1-2" data-name="Layer 1"><g class="cls-2"><rect class="cls-3" x="0.51" y="5.25" width="347.81" height="29.05"/><rect class="cls-4" x="0.51" y="34.66" width="347.81" height="29.05"/><rect class="cls-5" y="64.06" width="347.81" height="29.05"/><rect class="cls-6" x="0.51" y="93" width="347.81" height="29.05"/><rect class="cls-7" x="0.51" y="122.05" width="347.81" height="29.05"/><rect class="cls-8" x="0.51" y="151.34" width="347.81" height="29.05"/><rect class="cls-9" x="186.43" y="180.05" width="113.12" height="24.21"/><rect class="cls-10" x="186.43" y="204.26" width="113.12" height="24.21"/><rect class="cls-11" x="186.43" y="228.47" width="113.12" height="24.21"/><rect class="cls-12" x="14.28" y="180.64" width="135.75" height="56.48"/><rect class="cls-13" x="14.28" y="236.2" width="135.75" height="56.48"/></g><rect class="cls-1" x="0.51" width="347.81" height="296.85"/><rect class="cls-1" x="0.51" y="180.64" width="347.81" height="29.05"/><rect class="cls-1" x="0.51" y="209.69" width="347.81" height="29.05"/><rect class="cls-1" y="238.74" width="347.81" height="29.05"/><rect class="cls-1" x="0.51" y="267.79" width="347.81" height="29.05"/><path class="cls-14" d="M100.38,50.14v176c-10.63-4.83-25.55-4.38-39.68,2.28-21.55,10.16-33.12,30.87-25.86,46.29a24.43,24.43,0,0,0,11.82,11.5,37.42,37.42,0,0,0,15.11,3.5c19-.71,46-13.75,52.23-34.51h0a30.84,30.84,0,0,0,1.29-8.24c.74-37.86,0-104.19,0-105.55l146.12-37.58v80.33c-10.62-4.7-25.4-4.21-39.42,2.39a61.81,61.81,0,0,0-8.3,4.75,48.76,48.76,0,0,0-16.38,18.24c-3.86,7.85-4.55,16.16-1.18,23.31a23.34,23.34,0,0,0,8,9.29c9.33,6.45,23.78,7.65,38.15,2.68l.64-.23c17-6.43,32.79-20.45,33.36-39.79,0-.35,0-.71,0-1.08V9.14ZM262.74,70.28,116.28,106V84.29l146.46-34.8Z"/></g></g></svg>