<svg xmlns="http://www.w3.org/2000/svg" xmlns:xlink="http://www.w3.org/1999/xlink" viewBox="0 0 469.24 316.75"><defs><style>.cls-1{fill:none;}.cls-2{clip-path:url(#clip-path);}.cls-3{fill:#cf2727;}.cls-4{fill:#f99f1e;}.cls-5{fill:#f1e911;}.cls-6{fill:#6dbe45;}.cls-7{fill:#3f58a7;}.cls-8{fill:#894c9e;}.cls-9{fill:#fff;}.cls-10{fill:#e591bd;}.cls-11{fill:#9adaef;}.cls-12{fill:#8b5021;}.cls-13{fill:#231f20;}.cls-14{fill:#585958;stroke:#f4f8ec;stroke-miterlimit:10;}</style><clipPath id="clip-path"><rect class="cls-1" x="84.23" y="9.72" width="301.46" height="301.46"/></clipPath></defs><title>GMCLogo2</title><g id="Layer_2" data-name="Layer 2"><g id="Layer_1-2" data-name="Layer 1"><g class="cls-2"><rect class="cls-3" x="0.68" width="468.55" height="39.14"/><rect class="cls-4" x="0.68" y="39.61" width="468.55" height="39.14"/><rect class="cls-5" y="79.22" width="468.55" height="39.14"/><rect class="cls-6" x="0.68" y="118.21" width="468.55" height="39.14"/><rect class="cls-7" x="0.68" y="157.34" width="468.55" height="39.14"/><rect class="cls-8" x="0.68" y="196.8" width="468.55" height="39.14"/><rect class="cls-9" x="234.96" y="235.87" width="233.59" height="26.96"/><rect class="cls-10" x="234.96" y="262.83" width="233.59" height="26.96"/><rect class="cls-11" x="234.96" y="289.79" width="233.59" height="26.96"/><rect class="cls-12" x="0.68" y="235.87" width="234.28" height="40.77"/><rect class="cls-13" x="0.68" y="275.98" width="234.28" height="40.77"/><path class="cls-14" d="M175.83,59.17v176c-10.63-4.83-25.55-4.38-39.68,2.28C114.6,247.6,103,268.31,110.29,283.73a24.43,24.43,0,0,0,11.82,11.5,37.42,37.42,0,0,0,15.11,3.5c19-.71,46-13.75,52.23-34.51h0a30.84,30.84,0,0,0,1.29-8.24c.74-37.86,0-104.19,0-105.55l146.12-37.58v80.33c-10.62-4.7-25.4-4.21-39.42,2.39a61.81,61.81,0,0,0-8.3,4.75,48.76,48.76,0,0,0-16.38,18.24c-3.86,7.85-4.55,16.16-1.18,23.31a23.34,23.34,0,0,0,8,9.29c9.33,6.45,23.78,7.65,38.15,2.68l.64-.23c17-6.43,32.79-20.45,33.36-39.79,0-.35,0-.71,0-1.08V18.17ZM338.19,79.31,191.73,115V93.32l146.46-34.8Z"/></g></g></g></svg>